<?xml version="1.0" encoding="UTF-8"?>
<svg id="svg1" width="538.36" height="114.32" version="1.1" viewBox="0 0 538.36 114.32" xmlns="http://www.w3.org/2000/svg">
<title id="title1">Psycho-Pass</title>
<desc id="desc1">Cyberpunk psychological thriller anime by Gen Urobuchi</desc>
 <path id="path1" d="m219.17 113.28c-1.05-1.0611-1.16-1.6888-1.4-7.6969l-0.258-6.5386-2.29 2.5034c-2.1 2.3016-2.48 2.4884-4.66 2.324l-2.37-0.18233-0.289-4.6181 2.01-0.0236c1.71-0.0202 2.35-0.43043 4.34-2.8023 1.28-1.5319 4.06-4.7153 6.17-7.0841 2.11-2.3688 3.84-4.7078 3.84-5.201 0-1.2479 3.19-1.218 3.56 0.03191 0.541 1.8607-0.354 3.7662-3.32 7.0617-2.58 2.8695-3.03 3.6616-3.03 5.3579 0 1.2479 0.301 2.2119 0.814 2.5856 0.72 0.53205 0.744 0.83694 0.211 2.6453-0.331 1.1284-0.728 4.4687-0.882 7.4279-0.298 5.7316-0.537 6.1426-2.45 4.1997zm-53.1-0.16664c0-0.40427 0.563-1.5095 1.25-2.4585 1.04-1.4422 1.64-1.7262 3.61-1.7411 2.11-0.0138 2.57-0.28022 4.34-2.4809l1.98-2.466v-9.1914h-5.59v7.383h-3.73v-7.383h-2.33c-2.24 0-2.33-0.06569-2.33-1.7262 0-2.324 0.781-3.1983 2.86-3.1983h1.75l0.282-6.4041 3.79-0.12031-0.409 6.5237h5.71l0.0495-2.0027c0.0272-1.0985 0.0796-2.466 0.116-3.0264 0.0832-1.2778 3.42-4.379 3.82-3.5421 0.155 0.33104 0.137 2.3987-0.041 4.5882l-0.323 3.9829 2.27 0.04327c1.25 0.02376 2.64 0.23838 3.1 0.47601 0.732 0.3826 0.65 0.66059-0.699 2.3688-0.852 1.0835-2.15 2.0251-2.93 2.1372l-1.4 0.20027-0.0777 4.9245c-0.0427 2.7051-0.0952 5.2384-0.116 5.627-0.0214 0.38783-1.55 2.3987-3.39 4.4612l-3.35 3.7588h-4.1c-2.87 0-4.1-0.22119-4.1-0.73531zm87.5 0.23315-1.28-0.19504 2.44-4.2296h5.93c7.75 0 7.47 0.38559 7.47-10.387v-8.0705h-14.4v-4.9469l9.67 0.16664c9.55 0.1644 9.67 0.18159 9.67 1.4945 0 0.73083 0.143 1.517 0.317 1.7561 0.175 0.23315 0.228 0.74279 0.118 1.1358-0.203 0.72261-0.568 5.8436-0.976 13.675-0.218 4.2071-0.309 4.4836-2.27 7.0318l-2.04 2.6528-6.66 0.0491c-3.66 0.027-7.23-0.0386-7.94-0.14572zm44.1-1.8084c0.402-0.93409 1.56-3.1908 2.57-5.0291l1.84-3.3328v-8.4442c0-4.663 0.191-8.6683 0.424-8.8178 0.682-0.55746 1.91 0.32133 1.91 1.3675 0 0.52981 0.361 1.4871 0.802 2.1372 0.657 0.9565 0.803 2.4137 0.808 8.0705l6e-3 6.8824-4.55 8.8925h-4.55l0.73-1.6963zm18.5-0.30788c-1.61-5.2981-5.65-21.746-5.65-23.016 0-0.97145 0.209-1.3227 0.65-1.0985 0.358 0.18159 0.96-0.25482 1.34-0.97145 0.655-1.233 0.741-1.0761 1.77 3.1908 0.593 2.466 1.22 4.7153 1.39 4.9843 0.172 0.2735 0.421-1.2928 0.554-3.4748 0.133-2.182 0.384-4.2819 0.559-4.6555 0.507-1.0835 10.3-0.9042 10.9 0.20027 0.442 0.70393 0.36 1.0163-0.409 1.5618-0.68 0.48124-0.962 1.2853-0.962 2.7574 0 1.5618-0.354 2.4735-1.43 3.6691-1.28 1.4273-1.83 1.5917-5.17 1.5917-3.37 0-3.71 0.10537-3.42 1.0761 1.15 3.826 3.96 14.721 3.97 15.394 2e-3 0.4805-0.657 0.76969-1.76 0.76969-1.55 0-1.83-0.23838-2.37-2.0027zm6.81-20.625c0.132-0.52981-0.392-0.76969-1.68-0.76969-1.83 0-2.7 0.62845-2.05 1.4796 0.524 0.69272 3.53 0.11956 3.73-0.7129zm26.8 20.326 0.145-2.3091h2.46c1.35 0 2.61-0.31386 2.79-0.6972 0.606-1.2704 4.96-9.4903 6.74-12.704 0.961-1.7337 1.75-3.5271 1.75-3.968 0-0.62696-1.27-0.81452-5.58-0.81452-5.57 0-5.58-3e-3 -5.87-1.5468-0.579-3.0489 0.199-3.3777 8.02-3.3777h7.16v1.8159c0 1.0835 0.326 2.055 0.805 2.4137 0.763 0.56419 0.763 0.65685 0 1.771-0.443 0.64714-0.805 1.4422-0.805 1.771 0 0.3288-0.975 2.3688-2.17 4.5285l-2.17 3.9381 1.47 1.6216c0.807 0.88925 1.47 1.8981 1.47 2.2343 0 1.3376 2.11 3.2506 3.19 2.8845 0.8-0.27649 1.46 0.14273 2.67 1.6814 0.88 1.1284 1.6 2.2717 1.6 2.5407 0 0.272-1.76 0.49469-3.92 0.49469h-3.92l-2.6-3.7961c-1.43-2.0924-2.6-3.5122-2.6-3.161 0 0.35121-0.856 2.0625-1.9 3.7961l-1.9 3.161h-6.96zm-291-48.199c-0.173-0.3699-0.823-0.49544-1.46-0.28322-0.98 0.32506-1.74-0.37289-5.07-4.6779-3.72-4.8049-3.92-5.1935-3.92-7.6969v-2.6603h3.63c3.62 0 3.64 0.0055 5.45 2.4585l1.82 2.4585h4.08c3.9 0 4.15-0.08444 5.73-1.913 1.51-1.7561 1.65-2.1895 1.65-5.3131 0-3.1012-0.146-3.5869-1.66-5.4775l-1.66-2.0699h-11.8l-3.6-4.7825c-2.96-3.9381-3.6-5.1263-3.6-6.7254 0-1.0686 0.279-2.3091 0.62-2.7649 0.341-0.4506 0.539-1.1359 0.44-1.5319-0.0987-0.39157 0.232-0.88178 0.735-1.0985 1.3-0.547 1.6-2.04 0.504-2.5034-1.05-0.44089-0.766-1.517 0.407-1.5394 0.433-0.0075 1.31-0.54028 1.94-1.1882l1.15-1.1732-1.3-0.43043c-0.917-0.30414-1.22-0.70916-1.02-1.3824 0.152-0.52384 0.0074-1.1807-0.322-1.4646-0.435-0.37139-0.31-0.615 0.46-0.89672 0.876-0.31684 0.959-0.54028 0.482-1.3002-0.966-1.5394 1.76-4.2445 4.82-4.7676 1.37-0.23614 3.48-0.88178 4.69-1.4348 1.85-0.84441 2.52-0.88178 4.32-0.25258 1.17 0.41249 2.73 0.74727 3.47 0.74727 1.06 0 2.06 0.97892 4.77 4.663 2.97 4.0427 3.46 5.0217 3.68 7.383l0.254 2.7275h-3.85c-3.31 0-3.91-0.1644-4.32-1.1732-0.262-0.64714-1.23-1.7934-2.16-2.5482-1.5-1.2255-2.08-1.3301-5.36-1.0013-5.31 0.54102-6.95 2.4062-6.95 7.9211 0 2.0998 0.277 2.8396 1.72 4.5882l1.72 2.0849h11.7l7.2 9.5651v14.273l-1.57 0.38858c-0.862 0.21372-1.91 0.21521-2.33 0.0025-1.09-0.55373-0.98 1.3002 0.17 2.8247 1.31 1.7262 1.18 2.197-0.871 3.2805-0.991 0.52384-1.93 1.4049-2.1 1.9653-0.403 1.3899-0.398 1.4049 0.522 1.6739 0.448 0.12928-0.565 0.56494-2.25 0.97145-3.86 0.91914-10.5 0.96398-10.9 0.06778zm-6.73-41.175c0.621-0.53056 0.621-0.59632 0-0.59632-0.384 0-1.01 0.26827-1.4 0.59632-0.621 0.53056-0.621 0.59632 0 0.59632 0.384 0 1.01-0.26827 1.4-0.59632zm143 41.175c0.165-0.35346 0.0468-1.0462-0.263-1.5394-0.461-0.73382-0.26-1.2629 1.1-2.9144l1.66-2.0176-2.42-0.822c-1.33-0.4506-2.89-0.79211-3.47-0.76222-0.576 0.03213-1.05-0.21521-1.05-0.54999 0-0.33552 1.46-0.6434 3.26-0.68525 3.92-0.09266 4.02-0.10835 4.46-0.69272 0.192-0.25407-0.105-0.46181-0.66-0.46181-0.766 0-1.01-0.37064-1.01-1.5394 0-0.84442 0.157-1.5394 0.349-1.5394s0.349-2.6752 0.349-5.9483c0-4.2146 0.17-6.023 0.582-6.2098 0.32-0.14123 0.582-1.2106 0.582-2.3763 0-1.3152 0.265-2.2568 0.695-2.4735 0.459-0.23315 0.605-0.82947 0.428-1.7636-0.147-0.77716-0.0584-1.5767 0.197-1.786 0.26-0.21297-0.132-1.1657-0.894-2.1746-0.821-1.0835-1.36-2.4436-1.36-3.4374 0-0.94903-0.443-2.1297-1.05-2.8023-0.753-0.83694-0.891-1.3002-0.49-1.6515 0.677-0.59557 0.971-7.0766 0.446-9.864-0.306-1.6141-0.239-2.0027 0.345-2.0027 0.556 0 0.659-0.42819 0.445-1.8458l-0.28-1.8458h7.57v24.585h14.9v-2.7201c0-1.629-0.234-2.8247-0.582-2.9741-0.461-0.20475-0.456-0.46107 0.0228-1.2255 0.46-0.73606 0.472-1.0761 0.0536-1.4198-0.726-0.59258 1.26-2.0699 2.84-2.1073 0.64-0.01719 1.48-0.29966 1.86-0.62771 0.521-0.44463 0.263-0.59931-1.01-0.60604-1.51-0.0083-3.18-1.233-3.18-2.324 0-0.20774 0.456-1.0163 1.01-1.8009 0.557-0.78463 0.819-1.4273 0.582-1.4348-0.237-0.0049-0.737-0.26528-1.11-0.57764-0.583-0.48722-0.557-0.74727 0.181-1.8233 0.625-0.91167 0.726-1.4721 0.369-2.04-0.349-0.55597-0.319-1.091 0.104-1.8607 0.512-0.92661 1.42-1.0761 6.51-1.0761 3.67 0 5.81 0.22493 5.64 0.59184-0.152 0.32506-1 0.76969-1.89 0.99387-1.15 0.28471-1.61 0.72784-1.61 1.5319 0 0.62322-0.245 1.8458-0.545 2.7126-0.483 1.4049-0.395 1.786 0.786 3.415 1 1.3824 1.14 1.8383 0.572 1.8383-1.2 0-1.51 1.3301-0.535 2.2866 0.87 0.85189 0.87 0.88178-0.0179 1.7561-0.497 0.48722-1.18 0.88178-1.51 0.88178-0.866 0-0.757 1.6739 0.154 2.3464 0.706 0.52234 0.704 0.9042-0.0317 5.1113-0.437 2.4959-0.913 7.8463-1.06 11.956-0.144 4.0651-0.489 7.7716-0.766 8.22-0.374 0.62098-0.31 1.0238 0.248 1.5618 0.476 0.46032 0.671 1.2853 0.53 2.2568-0.15 1.0387 0.0906 1.9055 0.744 2.6902 0.531 0.63518 0.966 1.4348 0.966 1.771 0 0.33851-0.419 0.11433-0.932-0.49843-0.922-1.106-0.932-1.0761-0.932 2.6752 0 3.3777 0.101 3.7887 0.932 3.7887 0.512 0 0.932 0.27724 0.932 0.61575 0 0.36915-1.86 0.61575-4.65 0.61575h-4.65l-0.252-24.361h-14.4l-0.253 24.286h-3.92c-2.16 0-4.05 0.27724-4.21 0.61575-0.158 0.33851-0.602 0.61575-0.987 0.61575-0.384 0-0.564-0.28919-0.398-0.64265zm58.7-4.0726c-1.95-2.2568-3.76-4.648-4.04-5.3206-0.621-1.5319-0.529-25.706 0.101-26.528 0.242-0.32133 0.441-1.7112 0.441-3.0937s0.324-3.1236 0.719-3.8634c0.561-1.0611 0.605-1.6365 0.2-2.6379-0.402-0.99387-0.364-1.5992 0.167-2.6678 0.613-1.233 0.604-1.4572-0.0834-2.055-0.668-0.58138-0.339-1.2479 2.48-5.0366l3.25-4.3641h14.5l3.7 4.9245c2.82 3.7438 4.01 4.9245 4.97 4.9245 1.57 0 2.13 1.0013 0.86 1.5394-1.08 0.45509-1.26 1.5394-0.256 1.5394 0.375 0 0.891 0.51562 1.15 1.1433 0.367 0.9042 0.215 1.4572-0.723 2.6154l-1.19 1.4721 1.79 0.40128c0.983 0.22044 2.63 0.82947 3.65 1.36 1.53 0.78463 1.66 0.96398 0.699 0.97892-1.46 0.03183-5.12 2.5482-5.12 3.5271 0 0.40128 0.472 0.92661 1.05 1.1732 0.901 0.3826 0.754 0.54028-1.05 1.1209-1.71 0.55223-2.07 0.9042-1.94 1.9055 0.0862 0.67478 0.558 1.8009 1.05 2.4959 1.13 1.6066 1.12 2.2642-0.0403 3.6542-0.826 0.9864-0.932 1.8981-0.932 7.9958v6.8749l-7.81 10.088h-14zm16.4-8.3694c1.42-1.8233 1.54-2.2568 1.55-6.0006 0.01-2.3315 0.298-4.6854 0.682-5.5746 1.12-2.593 0.866-3.9755-0.947-5.1188-0.905-0.57017-2.06-1.0387-2.56-1.0387s-0.916-0.27724-0.916-0.61575c0-0.33851 0.23-0.61575 0.512-0.61575s1.17-0.38933 1.98-0.86683c0.807-0.47601 2.06-1.0387 2.79-1.2554 1.25-0.36915 1.3-0.52085 1.01-2.8247-0.245-1.9205-0.154-2.5183 0.428-2.8097 1.09-0.55148 0.905-1.3002-0.542-2.2269-0.941-0.60305-1.28-1.2629-1.26-2.4959 0.0124-1.1359-0.222-1.6739-0.728-1.6739-0.411 0-1.35-0.82947-2.09-1.8458-1.3-1.8009-1.45-1.8458-5.77-1.8458-4.35 0-4.46 0.03467-5.97 1.9653l-1.54 1.9653v30.788l1.49 2.0326c1.48 2.0176 1.52 2.0326 5.92 2.0326 4.35 0 4.46-0.0349 5.96-1.9653zm86.6 11.284c-1.38-0.85189-1.54-1.1732-1.2-2.3688 0.222-0.76222 0.777-1.3974 1.23-1.4049 0.789-0.01861 0.79-0.06023 0.015-0.83694-0.855-0.85936-1.12-3.7513-0.394-4.3416 0.232-0.18906 0.309-1.9877 0.171-3.9979s-0.0845-4.1548 0.119-4.7676c0.203-0.615 0.43-2.3614 0.504-3.8858 0.0743-1.5244 0.226-4.0876 0.337-5.6942 0.111-1.6066 0.0417-2.9218-0.155-2.9218-0.196 0-0.504-2.0774-0.684-4.6107-0.269-3.7887-0.195-4.7825 0.411-5.5821 0.985-1.3002 0.932-2.1148-0.137-2.1148-0.481 0-1.14-0.42071-1.46-0.93409-0.479-0.76222-0.446-1.1433 0.176-2.0475 0.994-1.4497 0.971-2.9293-0.0522-3.4599-0.702-0.36242-0.637-0.54551 0.466-1.3152 1.6-1.1209 1.61-1.6888 0.0456-2.6304-0.932-0.5612-1.1-0.91914-0.699-1.4497 0.823-1.091 0.649-2.9218-0.278-2.9368-0.697-0.00807-0.714-0.096398-0.116-0.60604 0.405-0.34599 5.82-0.6008 12.9-0.60604l12.2-0.00942 7.56 10.163v15.02l-7.69 9.9387-4.19-0.37961c-4.79-0.43342-8.48-0.40876-9.67 0.06576-0.459 0.18383-0.815 0.92662-0.815 1.7038 0 0.75474-0.231 1.6814-0.512 2.0475-0.373 0.49245-0.233 1.0462 0.511 2.0326 0.634 0.83694 0.949 1.8682 0.828 2.7051-0.187 1.2928-0.0592 1.3451 2.63 1.2031l2.83-0.15618-3.03 0.97145c-1.67 0.53579-3.18 1.2853-3.37 1.6664-0.189 0.37887-0.275 1.9354-0.191 3.4599 0.0843 1.5244-0.0754 3.273-0.355 3.8858-0.404 0.88925-0.323 1.2928 0.396 2.0027 0.497 0.48722 1.28 0.88925 1.75 0.88925s0.843 0.27201 0.843 0.60379c0 1.517-8.65 2.0625-10.9 0.68749zm21.9-35.57c1.48-1.5618 1.61-1.9504 1.61-5.1113 2e-5 -3.0638-0.16-3.6243-1.55-5.4028l-1.55-1.9877-11.6 0.34748-0.264 13.854h5.86c5.7 0 5.91-0.04812 7.47-1.6963zm25.6 36.243c-0.142-0.30339 0.545-4.9544 1.53-10.312 0.981-5.3803 2.15-11.956 2.6-14.646 1.41-8.3694 1.61-9.042 2.91-9.6398 1.21-0.60753 1.21-0.61351 0.242-1.5095-0.86-0.79211-0.917-1.1657-0.495-3.2058 0.262-1.2704 0.712-2.6902 0.999-3.1535 0.287-0.46555 0.46-1.6365 0.383-2.6005-0.101-1.2704 0.211-2.1895 1.13-3.3104 0.957-1.1732 1.08-1.5543 0.5-1.5543-1.01 0-0.98-1.0088 0.0484-1.8009 0.623-0.479 0.653-0.63144 0.129-0.64639-0.44-0.01203-0.283-0.39157 0.438-1.0611 1.3-1.1956 2.81-3.1236 2.81-3.5794 0-0.16963-0.751-0.30788-1.67-0.30788-2.27 0-1.86-1.4198 0.541-1.913 1-0.2055 1.46-0.41324 1.01-0.46181-0.749-0.079958-1.24-2.5482-0.511-2.5482 0.9 0 5.33 3.2656 5.91 4.3491 0.777 1.4646 0.524 3.6093-0.563 4.7526-0.662 0.6972-0.669 0.86683-0.057 1.375 0.383 0.31983 0.958 0.58586 1.28 0.59109 0.811 0.01315 0.726 0.93409-0.178 1.9205-0.691 0.75474-0.667 0.86683 0.26 1.1508 1.23 0.3841 1.34 1.4721 0.175 1.7411-3.82 0.86683-1.28 2.0102 4.23 1.9055 2.59-0.04708 4.79 0.23539 5.65 0.72485l1.4 0.79958-2.1 0.343c-1.22 0.19952-2.05 0.63966-1.99 1.0537 0.0628 0.43865-0.785 0.79211-2.21 0.92661-1.63 0.14871-2.31-0.01666-2.31-0.55746 0-1.9728-2 0.32282-2.46 2.8172-0.221 1.1956 5e-3 1.5842 1.35 2.324 0.889 0.49096 1.8 0.7398 2.03 0.55223 0.229-0.18682 0.651 0.1502 0.938 0.74727 0.372 0.77716 0.592 0.86683 0.766 0.32058 0.291-0.91167 1.56-1.0387 1.56-0.15394 0 0.33851-0.22 0.61575-0.488 0.61575-0.8 0-2.73 3.1086-2.48 3.9904 0.13 0.44687 0.0118 0.99387-0.262 1.218-1.13 0.91914-0.357 1.5618 1.87 1.5618 2 0 2.34 0.16589 2.21 1.0761-0.0854 0.59258-0.637 1.1657-1.23 1.2778-0.591 0.11134-0.974 0.52458-0.855 0.92662 0.119 0.3968 0.581 2.8023 1.03 5.3355 0.447 2.5407 1.31 7.383 1.92 10.761 0.611 3.3851 1.16 6.5685 1.21 7.0766 0.0818 0.75474-0.604 0.92662-3.84 0.92662h-3.94l-1.79-9.5651-10.3 0.34673-1.978 9.2363-3.56 0.1786c-1.96 0.09864-3.67-0.0695-3.82-0.37289zm17.7-20.027c0.16-0.17262-2.98-17.038-3.24-17.411-0.142-0.18682-0.503 1.2778-0.803 3.2506-0.3 1.9728-0.947 5.7091-1.44 8.2947-1.28 6.7777-1.4 6.4564 2.25 6.165 1.73-0.13974 3.18-0.29442 3.23-0.34374zm6.21-13.301c0-0.33851-0.327-0.61575-0.726-0.61575s-0.597 0.27724-0.438 0.61575c0.158 0.33851 0.485 0.61575 0.726 0.61575s0.438-0.27724 0.438-0.61575zm29.9 28.919c-3.68-4.7302-3.84-5.0515-3.84-7.6969v-2.75h7.13l3.19 4.9245h4.53c4.51 0 4.54-0.0078 6.02-2.0326 1.27-1.7337 1.49-2.4809 1.49-5.1113 0-2.6752-0.201-3.3403-1.54-5.0515l-1.54-1.9653h-11.6l-3.34-4.3342c-1.84-2.3838-3.69-5.1113-4.11-6.0604-0.72-1.6066-0.717-1.8308 0.0399-3.3552 0.446-0.89672 1.08-1.6365 1.41-1.6365 0.9 0 1.8-3.7812 1.05-4.4089-0.323-0.27126-0.797-0.5059-1.05-0.5216-0.256-0.01547-0.0873-0.31908 0.375-0.67478 0.66-0.5074 0.724-0.82947 0.297-1.5095-0.299-0.47601-0.408-1.3301-0.243-1.8981 0.167-0.57614 0.0352-1.2554-0.297-1.5244-0.428-0.35122 0.326-1.7187 2.65-4.8199l3.25-4.3267h14.5l4.1 5.4476c3.74 4.9693 4.09 5.6269 3.95 7.5474l-0.152 2.0924-7 0.35421-3.67-4.9693h-4.48c-4.3 0-4.53 0.06942-5.73 1.7262-1.07 1.4796-1.25 2.2493-1.25 5.4252 0 3.2506 0.159 3.9007 1.31 5.3505 1.27 1.6141 1.45 1.6515 7.03 1.6515h5.73l2.17 2.5482c1.19 1.3974 3.18 3.1086 4.41 3.7887 2.14 1.1882 2.23 1.3451 2.1 3.4599-0.136 2.0924-0.0621 2.2194 1.37 2.4062 1.85 0.23614 1.93 1.0163 0.233 2.197l-1.28 0.89672 1.16 0.57614c0.641 0.31684 1.48 0.71065 1.86 0.8743 0.384 0.1644-0.297 0.49768-1.51 0.74129-2.46 0.49245-2.87 1.3526-0.958 1.9877 1.23 0.40726 1.23 0.42669 0.222 0.91914-0.901 0.44014-0.958 0.66208-0.446 1.7411 0.518 1.0985 0.398 1.4646-1.04 3.1684-0.893 1.0611-3.02 3.699-4.72 5.8511l-3.1 3.9232-14.8-0.01226-3.84-4.932zm53.1-0.06023c-3.6-4.7377-3.8-5.1487-3.8-7.6969v-2.6902h3.49c3.49 0 3.5 0.0061 5.18 2.4585l1.68 2.4585h4.35c3.89 0 4.54-0.16589 6.12-1.5693 1.94-1.7262 3.12-4.4537 2.41-5.5971-0.287-0.45957-0.184-1.0387 0.295-1.6739 0.668-0.88178 0.596-1.0462-0.799-1.8233-0.843-0.47153-1.93-1.4497-2.42-2.1746-0.819-1.218-1.35-1.3152-6.84-1.3152h-5.95l-7.51-10.013v-5.0964c0-5.5522 0.143-5.8437 2.88-5.8437 1.1 0 1.35-0.21746 1.13-0.97892-0.201-0.69122 0.125-1.1807 1.11-1.6739 2.51-1.2554 1.36-2.8471-2.1-2.8919-2.75-0.03505-0.157-1.091 3.91-1.5917l4.01-0.49394-8.85-1.3301 4.43-0.51786c2.43-0.28471 6.05-0.69347 8.04-0.9042 1.99-0.21447 3.65-0.66656 3.69-1.0013 0.0835-0.68824 0.164-0.66656-4.98-1.3301l-3.73-0.48199 6.06-0.37364c3.33-0.2055 6.34-0.18308 6.69 0.049245 0.35 0.2324 2.18 2.4585 4.08 4.9395 3.21 4.2221 3.44 4.6929 3.44 7.1663v2.6528h-3.4c-3.35 0-3.42-0.03422-5.22-2.4585l-1.82-2.4585h-4.38c-4.36 0-4.38 0.0096-5.96 2.0924-1.37 1.8084-1.58 2.4959-1.58 5.1113 0 2.608 0.21 3.288 1.54 4.9843l1.54 1.9653h11.4l9.06 11.284-0.146 2.8172c-0.0803 1.5468-0.185 4.4836-0.233 6.5162l-0.0868 3.699-8.18 10.761h-14.7l-3.8-5.0067zm-511-25.034 0.132-29.368 21.7-0.33104 1.39 1.5468c0.767 0.85189 1.95 1.5842 2.64 1.6216 0.789 0.04521 0.946 0.17486 0.43 0.35271-1.52 0.52458-0.826 1.3301 1.75 2.04 1.41 0.38634 2.56 0.94903 2.56 1.2479 0 0.62248-2.98 1.8233-4.54 1.8308-0.576 0.0019-1.05 0.28023-1.05 0.61874 0 0.33851 0.821 0.61575 1.83 0.61575 1 0 2.15 0.16664 2.56 0.3699 0.615 0.31161 0.566 0.547-0.311 1.4945-0.961 1.0387-0.977 1.1583-0.209 1.5543 0.722 0.37139 0.823 1.1583 0.757 5.9557l-0.0762 5.5223-8.03 10.312-6.75 0.04476c-7.69 0.05096-13.3 1.0088-6.67 1.1358 2.1 0.03901 3.94 0.32805 4.08 0.6434 0.151 0.32207-1.32 0.75474-3.37 0.99387l-3.63 0.41922 0.181 2.0475c0.0995 1.1284 0.579 2.5258 1.06 3.1012 0.947 1.1358 1.15 2.7201 0.463 3.6691-0.244 0.33926-0.256 1.8756-0.0278 3.6616 0.216 1.6963 0.405 4.252 0.421 5.6942l0.0278 2.6154h-7.48zm20.3-6.9571c1.37-1.6963 1.51-2.2119 1.51-5.4252 0-3.1236-0.163-3.7513-1.38-5.2907-1.14-1.4497-1.88-1.7934-4.31-2.0102-1.61-0.14572-4.24-0.08295-5.84 0.13974l-2.91 0.40502v14.049l11.4-0.0061 1.51-1.8756zm86.8 24.361c0-6.5984-7e-3 -12.18-0.0154-12.479-9e-3 -0.25407 0.778-0.60454 1.75-0.77716 1.67-0.30115 1.71-0.3572 0.745-1.0761-0.56-0.41772-2.03-0.76222-3.26-0.76969-1.62-0.0068-2.05-0.17486-1.54-0.60604 0.384-0.32805 1.26-0.6008 1.94-0.60604 1.05-0.0079 1.22-0.25034 1.11-1.5618-0.162-1.9504-1.38-3.7662-2.85-4.252-0.949-0.3146-1.13-0.74727-1.13-2.7201 0-1.6814-0.318-2.735-1.13-3.7438-0.62-0.76969-1.38-2.2717-1.7-3.3403-0.315-1.0686-0.846-2.7724-1.18-3.7887-0.983-2.9891-2.98-10.238-2.98-10.835 0-0.76969 1.26-0.6703 2.3 0.18906 0.691 0.57017 1.3 0.55149 2.75-0.083694 1.03-0.44836 2.16-0.66507 2.52-0.48274 0.703 0.35645 1.59 3.3702 4.34 14.796 0.961 3.9755 1.89 7.2336 2.07 7.2336 0.179 0 1.56-4.917 3.07-10.91l2.74-10.91 4.08-0.17785c2.5-0.1091 4.08 0.060454 4.08 0.43865 0 1.0985-8.24 29.891-9.39 32.88-0.241 0.61351-0.314 1.629-0.163 2.2568 0.197 0.822-0.188 1.6066-1.38 2.8023-1.64 1.6515-2.18 3.3552-1.07 3.3702 0.405 0.0066 0.38 0.1786-0.0847 0.56718-0.367 0.30638-0.668 1.4796-0.669 2.608-2e-3 1.7038 0.189 2.0849 1.13 2.2642 0.624 0.11732 1.41 0.51188 1.75 0.87431 0.499 0.54177 0.477 0.76222-0.116 1.2031-1.11 0.822-0.873 1.517 0.669 1.9205 1.75 0.46256 1.83 1.629 0.116 1.644-0.705 0.0049-1.6 0.28994-1.98 0.63368-0.584 0.52159-0.438 0.91914 0.893 2.4286l1.59 1.8084-1.27 0.63892c-0.7 0.35122-2.73 0.63892-4.5 0.63892h-3.23zm41.8 7.2186-3.6-4.7825v-4.6854c0-4.3192 0.0912-4.7676 1.16-5.6942 0.64-0.55448 1.16-1.2106 1.15-1.4572-0.0147-0.57465-3.08-2.6005-3.94-2.6005-0.957 0-1.39-1.2853-0.65-1.9055 0.353-0.29517 1.19-0.54177 1.87-0.547 0.966-0.0074 1.28-0.3699 1.47-1.7038 0.135-0.93409 0.0669-1.9803-0.152-2.3315-0.585-0.93409 0.0759-1.9728 1.57-2.4735 2.06-0.68375 0.879-1.375-3.42-2.0027l-3.96-0.57465 2.79-0.14348c1.54-0.07921 3.32-0.33627 3.96-0.57091 1.78-0.65536 1.68-2.1447-0.215-3.0489-1.25-0.59856-1.65-1.1358-1.65-2.2418 0-0.93409 0.347-1.5992 0.966-1.8607 0.886-0.37139 0.905-0.49395 0.233-1.4721-0.403-0.5881-0.738-1.3227-0.745-1.6365-7e-3 -0.31161-0.845-1.2479-1.86-2.0774-2.03-1.6515-2.35-2.4959-0.947-2.4959 0.497 0 1.03-0.27724 1.19-0.61575 0.158-0.33851 1.2-0.91914 2.32-1.2928 1.79-0.59632 3.34-2.3987 2.06-2.3987-0.948 0 0.196-1.3824 2.08-2.5108 1.63-0.97892 3.1-1.1583 9.62-1.1657l7.7-0.013526 3.69 4.9021c3.29 4.3641 3.7 5.1711 3.78 7.383l0.096 2.4884h-3.67c-3.59 0-3.71-0.05059-5.44-2.2418l-1.77-2.2418-4.41 0.11882c-4.12 0.1106-4.49 0.22941-5.7 1.8009l-1.29 1.6814-0.0416 15.468-0.0415 15.468 2.65 4.3939 8.98 3.7e-5 3.37-4.9245h7.36l0.0123 2.3091c0.011 2.0699-0.376 2.8247-3.79 7.383l-3.8 5.0814h-15.4l-3.6-4.7825zm79.6-12.255c-0.43-0.56793-0.39-1.4348 0.0662-1.4348 0.207 0 0.784 0.40652 1.28 0.9042 0.888 0.88925 0.887 0.9042-0.0662 0.92662-0.534 0.01076-1.11-0.16515-1.28-0.39082zm-214-5.1263c-0.178-0.38036 0.567-0.59184 1.95-0.55447 1.82 0.04977 2.02 0.15394 1.08 0.55447-1.67 0.70692-2.7 0.70692-3.03 0zm293-3.1385c-0.538-0.7114-1.69-1.502-2.55-1.7486-1.5-0.43641-1.45-0.479 1.11-0.93409 3.02-0.53579 3.82-1.3376 1.88-1.9055-2.23-0.65012-2.27-0.72186-0.85-1.4646 1.04-0.54401 1.22-0.85189 0.741-1.2479-1.18-0.96398 4.14-1.36 15.6-1.1508 11.6 0.21297 14.3 0.76222 11.2 2.2493-1.24 0.59258-1.54 1.0238-1.35 1.9728 0.213 1.0761 7.8e-4 1.2106-1.84 1.2106-2.1 0-3.14 0.88925-3.77 3.2282-0.262 0.97892-1.16 1.0761-9.75 1.0761-8.99 0-9.51-0.06404-10.4-1.2928zm-78.5-4.0502c0.336-0.17785 0.738-0.15618 0.893 0.04857 0.155 0.20475-0.12 0.34972-0.611 0.32357-0.543-0.02952-0.653-0.17561-0.281-0.37214zm-185-15.618c-0.507-1.0835 0.0275-1.2405 0.985-0.28023 0.788 0.78463 0.802 0.89672 0.11 0.91914-0.433 0.01076-0.926-0.27574-1.09-0.63667zm383-2.4212c0-0.34225 1.24-0.61575 2.79-0.61575s2.79 0.2735 2.79 0.61575c0 0.34225-1.24 0.61575-2.79 0.61575s-2.79-0.2735-2.79-0.61575zm-378-3.1086c-0.282-0.69571-0.429-1.5917-0.327-1.9952s0.461-0.04192 0.799 0.80705c0.337 0.84442 0.844 1.7411 1.13 1.9877 0.318 0.28097 0.21 0.45584-0.286 0.46181-0.439 0.0049-1.03-0.5597-1.31-1.2554zm377-3.4823c0.708-0.14123 1.76-0.1375 2.33 0.0084 0.573 0.14646-6e-3 0.26154-1.29 0.25706-1.28-0.0049-1.75-0.12405-1.04-0.26528z" fill="#090909" stroke-width=".53509"/>
</svg>